<svg width="117" height="26" viewBox="0 0 117 26" fill="none" xmlns="http://www.w3.org/2000/svg">
<path d="M15.022 25L8.15479 0.999999H13.6978L17.6704 17.6758H17.8696L22.2524 0.999999H26.9985L31.3696 17.7109H31.5806L35.5532 0.999999H41.0962L34.229 25H29.2837L24.7134 9.30859H24.5259L19.9673 25H15.022ZM46.9175 25.3398C45.769 25.3398 44.7456 25.1406 43.8472 24.7422C42.9487 24.3359 42.2378 23.7383 41.7144 22.9492C41.1987 22.1523 40.9409 21.1602 40.9409 19.9727C40.9409 18.9727 41.1245 18.1328 41.4917 17.4531C41.8589 16.7734 42.3589 16.2266 42.9917 15.8125C43.6245 15.3984 44.3433 15.0859 45.1479 14.875C45.9604 14.6641 46.812 14.5156 47.7026 14.4297C48.7495 14.3203 49.5933 14.2187 50.2339 14.125C50.8745 14.0234 51.3394 13.875 51.6284 13.6797C51.9175 13.4844 52.062 13.1953 52.062 12.8125V12.7422C52.062 12 51.8276 11.4258 51.3589 11.0195C50.8979 10.6133 50.2417 10.4102 49.3901 10.4102C48.4917 10.4102 47.7769 10.6094 47.2456 11.0078C46.7144 11.3984 46.3628 11.8906 46.1909 12.4844L41.5737 12.1094C41.8081 11.0156 42.269 10.0703 42.9565 9.27344C43.644 8.46875 44.5308 7.85156 45.6167 7.42187C46.7104 6.98437 47.9761 6.76563 49.4136 6.76563C50.4136 6.76563 51.3706 6.88281 52.2847 7.11719C53.2065 7.35156 54.0229 7.71484 54.7339 8.20703C55.4526 8.69922 56.019 9.33203 56.4331 10.1055C56.8472 10.8711 57.0542 11.7891 57.0542 12.8594V25H52.3198V22.5039H52.1792C51.8901 23.0664 51.5034 23.5625 51.019 23.9922C50.5347 24.4141 49.9526 24.7461 49.2729 24.9883C48.5933 25.2227 47.8081 25.3398 46.9175 25.3398ZM48.3472 21.8945C49.0815 21.8945 49.73 21.75 50.2925 21.4609C50.855 21.1641 51.2964 20.7656 51.6167 20.2656C51.937 19.7656 52.0972 19.1992 52.0972 18.5664V16.6563C51.9409 16.7578 51.7261 16.8516 51.4526 16.9375C51.187 17.0156 50.8862 17.0898 50.5503 17.1602C50.2144 17.2227 49.8784 17.2812 49.5425 17.3359C49.2065 17.3828 48.9019 17.4258 48.6284 17.4648C48.0425 17.5508 47.5308 17.6875 47.0933 17.875C46.6558 18.0625 46.3159 18.3164 46.0737 18.6367C45.8315 18.9492 45.7104 19.3398 45.7104 19.8086C45.7104 20.4883 45.9565 21.0078 46.4487 21.3672C46.9487 21.7187 47.5815 21.8945 48.3472 21.8945ZM65.9194 0.999999V25H60.9272V0.999999H65.9194ZM74.9106 0.999999V25H69.9185V0.999999H74.9106ZM87.1128 25.3516C85.2612 25.3516 83.6675 24.9766 82.3315 24.2266C81.0034 23.4687 79.98 22.3984 79.2612 21.0156C78.5425 19.625 78.1831 17.9805 78.1831 16.082C78.1831 14.2305 78.5425 12.6055 79.2612 11.207C79.98 9.80859 80.9917 8.71875 82.2964 7.9375C83.6089 7.15625 85.1479 6.76563 86.9136 6.76563C88.1011 6.76563 89.2065 6.95703 90.23 7.33984C91.2612 7.71484 92.1597 8.28125 92.9253 9.03906C93.6987 9.79687 94.3003 10.75 94.73 11.8984C95.1597 13.0391 95.3745 14.375 95.3745 15.9062V17.2773H80.1753V14.1836H90.6753C90.6753 13.4648 90.519 12.8281 90.2065 12.2734C89.894 11.7187 89.4604 11.2852 88.9058 10.9727C88.3589 10.6523 87.7222 10.4922 86.9956 10.4922C86.2378 10.4922 85.5659 10.668 84.98 11.0195C84.4019 11.3633 83.9487 11.8281 83.6206 12.4141C83.2925 12.9922 83.1245 13.6367 83.1167 14.3477V17.2891C83.1167 18.1797 83.2808 18.9492 83.6089 19.5977C83.9448 20.2461 84.4175 20.7461 85.0269 21.0977C85.6362 21.4492 86.3589 21.625 87.1948 21.625C87.7495 21.625 88.2573 21.5469 88.7183 21.3906C89.1792 21.2344 89.5737 21 89.9019 20.6875C90.23 20.375 90.48 19.9922 90.6519 19.5391L95.269 19.8438C95.0347 20.9531 94.5542 21.9219 93.8276 22.75C93.1089 23.5703 92.1792 24.2109 91.0386 24.6719C89.9058 25.125 88.5972 25.3516 87.1128 25.3516ZM108.207 7V10.75H97.3667V7H108.207ZM99.8276 2.6875H104.82V19.4687C104.82 19.9297 104.89 20.2891 105.031 20.5469C105.171 20.7969 105.367 20.9727 105.617 21.0742C105.875 21.1758 106.171 21.2266 106.507 21.2266C106.742 21.2266 106.976 21.207 107.21 21.168C107.445 21.1211 107.625 21.0859 107.75 21.0625L108.535 24.7773C108.285 24.8555 107.933 24.9453 107.48 25.0469C107.027 25.1563 106.476 25.2227 105.828 25.2461C104.625 25.293 103.57 25.1328 102.664 24.7656C101.765 24.3984 101.066 23.8281 100.566 23.0547C100.066 22.2812 99.8198 21.3047 99.8276 20.125V2.6875Z" fill="white"/>
</svg>
